# xmcd CD database file
#
# Track frame offsets:
#	150
#	18336
#	62518
#	74096
#	136525
#	156982
#	209194
#	242411
#	253696
#	297735
#	314770
#
# Disc length: 4461 seconds
#
# Revision: 0
# Processed by: cddbd v1.5.2PL0 Copyright (c) Steve Scherf et al.
# Submitted via: CDex 1.51
#
DISCID=ae116b0b
DTITLE=Randy Weston - The storyteller
DYEAR=2010
DGENRE=Jazz
TTITLE0=Chano pozo
TTITLE1=African sunrise
TTITLE2=Tehuti
TTITLE3=Jus' blues
TTITLE4=The bridge
TTITLE5=The shrine
TTITLE6=Loose wig
TTITLE7=Wig loose
TTITLE8=Hi fly
TTITLE9=Fly hi
TTITLE10=Love, the mystery of
EXTD=YEAR: 2010
EXTT0=
EXTT1=
EXTT2=
EXTT3=
EXTT4=
EXTT5=
EXTT6=
EXTT7=
EXTT8=
EXTT9=
EXTT10=
PLAYORDER=
